# xmcd
#
# Track frame offsets: 
#        150
#        14557
#        28107
#        41287
#        53315
#        67450
#        80127
#        94940
#        108472
#        122390
#        134575
#        147607
#        160457
#        174545
#        187967
#        202055
#
# Disc length: 2847 seconds
#
# Revision: 1
# Processed by: cddbd v1.5.2PL0 Copyright (c) Steve Scherf et al.
# Submitted via: ExactAudioCopy v0.95b4
#
DISCID=ed0b1d10
DTITLE=Various Artist - Shake That Thing: America's Top Bands of the 20's
DYEAR=1984
DGENRE=Dance Bands
TTITLE0=Broadway Nitelites (v:Vaughn de Leath) - I Wanna Be Loved by Y
TTITLE0=ou [1928]
TTITLE1=Ben Selvin and HO (v:Franklyn Bauer) - Shakin' the Blues Away [1
TTITLE1=927]
TTITLE2=Al Lentz and HO (v:Al Lentz) - Hello! Swanee, Hello [1926]
TTITLE3=Waring's Pennsylvanians (v:Tom Waring) - Mighty Blue [1925]
TTITLE4=Ted Weems and His Band (v:Parker Gibbs) - What a Day! [1929]
TTITLE5=Howard Lanin's Ben Franklin O - Melancholy Lou [1925]
TTITLE6=Guy Lombardo and His Royal Canadians (v:Carmen Lombardo) - Confe
TTITLE6=ssin' [1930]
TTITLE7=Abe Lyman's California O - Shake That Thing! [1926]
TTITLE8=Vincent Lopez and HO (v:Franklyn Bauer, Lewis James, Elliott Sha
TTITLE8=w, Wilfred Glenn) - Everything's Made for Love [1927]
TTITLE9=Charleston Chasers - Wabash Blues [1927]
TTITLE10=Paul Whiteman and HO (v:Jack Fulton, Charles Gaylord, Austin Yo
TTITLE10=ung, Al Rinker) - Smile [1928]
TTITLE11=Irving Aaronson and His Commanders (v:Phil Saxe) - Let's Misbeh
TTITLE11=ave [1928]
TTITLE12=Nick Shilkret and the Victor O (v:Frank Crumit) - Just a Night 
TTITLE12=for Meditation [1928]
TTITLE13=Ted Lewis and His Band - Bugle Call Rag (1926)
TTITLE14=Rudy Vallee and His Connecticut Yankees (v:Rudy Vallee) - 'Spos
TTITLE14=in' [1929]
TTITLE15=Ben Bernie and His Hotel Roosevelt O (v:Scrappy Lambert, Billy 
TTITLE15=Hillpot) - He's the Last Word [1926]
EXTD=(p) 1984 - © 1990, Academy Sound and Vision Ltd.\nProduced by Kevi
EXTD=n Daly.\nCD: ASV/Living Era CD AJA 5002 (1992-04-28 - 1994-04-20),
EXTD=UPC 743625500226.
EXTT0=
EXTT1=
EXTT2=
EXTT3=
EXTT4=
EXTT5=
EXTT6=
EXTT7=
EXTT8=
EXTT9=
EXTT10=
EXTT11=
EXTT12=
EXTT13=
EXTT14=
EXTT15=
PLAYORDER=
